<svg xmlns="http://www.w3.org/2000/svg" xmlns:xlink="http://www.w3.org/1999/xlink" width="500" zoomAndPan="magnify" viewBox="0 0 375 374.999991" height="500" preserveAspectRatio="xMidYMid meet" version="1.0"><defs><g/><clipPath id="f5eb40d08f"><path d="M 9.953125 108 L 104 108 L 104 267 L 9.953125 267 Z M 9.953125 108 " clip-rule="nonzero"/></clipPath><clipPath id="1b1314fd7f"><path d="M 112 87.609375 L 117.953125 87.609375 L 117.953125 287.109375 L 112 287.109375 Z M 112 87.609375 " clip-rule="nonzero"/></clipPath></defs><g clip-path="url(#f5eb40d08f)"><path fill="rgb(200, 200, 200)" d="M 88.222656 179.808594 L 103.914062 179.828125 L 103.914062 174.9375 L 88.136719 174.9375 L 94.949219 132.125 L 103.914062 132.125 L 103.914062 127.234375 L 90.324219 127.234375 L 58.476562 120.382812 L 83.351562 113.867188 L 103.914062 113.867188 L 103.914062 108.976562 L 82.71875 108.976562 L 46.746094 118.402344 L 9.953125 151.070312 L 103.914062 266.035156 Z M 89.804688 132.125 L 89.996094 132.125 L 83.238281 174.601562 L 55.144531 170.324219 L 72.527344 128.410156 Z M 48.628906 123.269531 L 67.664062 127.363281 L 50.472656 168.824219 L 17.554688 150.863281 Z M 23.144531 159.484375 L 49.90625 174.085938 L 82.847656 232.53125 Z M 56.289062 175.445312 L 83.191406 179.542969 L 95.621094 245.234375 Z M 56.289062 175.445312 " fill-opacity="1" fill-rule="nonzero"/></g><g clip-path="url(#1b1314fd7f)"><path fill="rgb(200, 200, 200)" d="M 112.894531 87.648438 L 117.785156 87.648438 L 117.785156 287.363281 L 112.894531 287.363281 Z M 112.894531 87.648438 " fill-opacity="1" fill-rule="nonzero"/></g><g fill="rgb(200, 200, 200)" fill-opacity="1"><g transform="translate(137.559502, 171.58949)"><g><path d="M 25.765625 -39.734375 L 20.859375 -39.734375 C 18.554688 -39.734375 16.429688 -39.117188 14.484375 -37.890625 C 12.535156 -36.660156 10.988281 -34.632812 9.84375 -31.8125 C 8.695312 -28.988281 8.125 -25.203125 8.125 -20.453125 C 8.125 -16.867188 8.519531 -13.835938 9.3125 -11.359375 C 10.113281 -8.890625 11.203125 -6.90625 12.578125 -5.40625 C 13.960938 -3.90625 15.550781 -2.820312 17.34375 -2.15625 C 19.132812 -1.5 21.003906 -1.171875 22.953125 -1.171875 L 30.03125 -1.171875 L 30.03125 0 L 19.15625 0 C 16.082031 0 13.289062 -0.707031 10.78125 -2.125 C 8.269531 -3.550781 6.265625 -5.769531 4.765625 -8.78125 C 3.265625 -11.800781 2.515625 -15.691406 2.515625 -20.453125 C 2.515625 -25.203125 3.234375 -29.082031 4.671875 -32.09375 C 6.109375 -35.113281 8.046875 -37.332031 10.484375 -38.75 C 12.921875 -40.175781 15.617188 -40.890625 18.578125 -40.890625 L 30.03125 -40.890625 L 30.03125 -32.25 L 28.859375 -32.25 Z M 25.765625 -39.734375 "/></g></g></g><g fill="rgb(200, 200, 200)" fill-opacity="1"><g transform="translate(170.795642, 171.58949)"><g><path d="M 16.1875 -40.890625 L 21.09375 -40.890625 L 31.953125 -1.453125 L 35.046875 -1.171875 L 35.046875 0 L 23.078125 0 L 23.078125 -1.171875 L 26 -1.40625 L 22.3125 -14.84375 L 9.0625 -14.84375 L 5.375 -1.28125 L 8.296875 -1.171875 L 8.296875 0 L 1.046875 0 L 1.046875 -1.171875 L 4.09375 -1.28125 L 14.953125 -40.890625 Z M 15.78125 -38.96875 L 15.546875 -38.390625 L 9.40625 -16 L 22.03125 -16 L 15.890625 -38.390625 Z M 15.78125 -38.96875 "/></g></g></g><g fill="rgb(200, 200, 200)" fill-opacity="1"><g transform="translate(207.770098, 171.58949)"><g><path d="M 1.046875 -39.734375 L 1.046875 -40.890625 L 18.109375 -40.890625 C 22.003906 -40.890625 25.117188 -39.882812 27.453125 -37.875 C 29.796875 -35.875 30.96875 -32.675781 30.96875 -28.28125 C 30.96875 -25.082031 30.332031 -22.519531 29.0625 -20.59375 C 27.800781 -18.664062 26.039062 -17.3125 23.78125 -16.53125 L 31.078125 -1.40625 L 34.171875 -1.171875 L 34.171875 0 L 22.03125 0 L 22.03125 -1.171875 L 24.953125 -1.40625 L 18.046875 -15.65625 L 9.75 -15.65625 L 9.75 -1.453125 L 12.796875 -1.171875 L 12.796875 0 L 1.046875 0 L 1.046875 -1.171875 L 4.09375 -1.453125 L 4.09375 -39.5 Z M 9.75 -39.734375 L 9.75 -16.828125 L 15.3125 -16.828125 C 17.257812 -16.828125 18.972656 -17.1875 20.453125 -17.90625 C 21.929688 -18.625 23.085938 -19.820312 23.921875 -21.5 C 24.765625 -23.175781 25.1875 -25.4375 25.1875 -28.28125 C 25.1875 -31.15625 24.773438 -33.421875 23.953125 -35.078125 C 23.128906 -36.734375 21.976562 -37.921875 20.5 -38.640625 C 19.019531 -39.367188 17.289062 -39.734375 15.3125 -39.734375 Z M 9.75 -39.734375 "/></g></g></g><g fill="rgb(200, 200, 200)" fill-opacity="1"><g transform="translate(243.693152, 171.58949)"><g><path d="M 16.1875 -40.890625 L 21.09375 -40.890625 L 31.953125 -1.453125 L 35.046875 -1.171875 L 35.046875 0 L 23.078125 0 L 23.078125 -1.171875 L 26 -1.40625 L 22.3125 -14.84375 L 9.0625 -14.84375 L 5.375 -1.28125 L 8.296875 -1.171875 L 8.296875 0 L 1.046875 0 L 1.046875 -1.171875 L 4.09375 -1.28125 L 14.953125 -40.890625 Z M 15.78125 -38.96875 L 15.546875 -38.390625 L 9.40625 -16 L 22.03125 -16 L 15.890625 -38.390625 Z M 15.78125 -38.96875 "/></g></g></g><g fill="rgb(200, 200, 200)" fill-opacity="1"><g transform="translate(137.559502, 235.322127)"><g><path d="M 0.8125 0 L 0.8125 -1.171875 L 2.859375 -1.171875 C 4.023438 -1.171875 5.023438 -1.617188 5.859375 -2.515625 C 6.703125 -3.410156 7.125 -4.460938 7.125 -5.671875 L 7.125 -39.5 L 4.140625 -39.734375 L 4.140625 -40.890625 L 15.890625 -40.890625 L 15.890625 -39.734375 L 12.90625 -39.5 L 12.90625 -7.125 C 12.90625 -5.800781 12.582031 -4.601562 11.9375 -3.53125 C 11.300781 -2.457031 10.4375 -1.597656 9.34375 -0.953125 C 8.257812 -0.316406 7.050781 0 5.71875 0 Z M 0.8125 0 "/></g></g></g><g fill="rgb(200, 200, 200)" fill-opacity="1"><g transform="translate(155.258251, 235.322127)"><g><path d="M 4.03125 -40.890625 L 28.21875 -40.890625 L 28.21875 -32.890625 L 26.984375 -32.890625 L 24.015625 -39.734375 L 9.75 -39.734375 L 9.75 -21.03125 L 21.375 -21.03125 L 21.5625 -24.71875 L 22.71875 -24.71875 L 22.71875 -16.234375 L 21.5625 -16.234375 L 21.375 -19.859375 L 9.75 -19.859375 L 9.75 -1.171875 L 24.015625 -1.171875 L 26.984375 -8 L 28.21875 -8 L 28.21875 0 L 1.046875 0 L 1.046875 -1.171875 L 4.03125 -1.40625 L 4.03125 -39.5 L 1.046875 -39.734375 L 1.046875 -40.890625 Z M 4.03125 -40.890625 "/></g></g></g><g fill="rgb(200, 200, 200)" fill-opacity="1"><g transform="translate(186.625217, 235.322127)"><g><path d="M 24.0625 -38.203125 L 16.46875 0 L 11.859375 0 L 4.140625 -39.5 L 1.046875 -39.734375 L 1.046875 -40.890625 L 12.859375 -40.890625 L 12.859375 -39.734375 L 9.9375 -39.5 L 16.359375 -7.296875 L 16.46875 -6.65625 L 23.375 -40.890625 L 29.5625 -40.890625 L 36.453125 -6.65625 L 36.578125 -7.296875 L 43.0625 -39.671875 L 40.078125 -39.734375 L 40.078125 -40.890625 L 47.265625 -40.890625 L 47.265625 -39.734375 L 44.28125 -39.671875 L 36.453125 0 L 31.78125 0 L 24.296875 -38.265625 L 24.1875 -38.796875 Z M 24.0625 -38.203125 "/></g></g></g><g fill="rgb(200, 200, 200)" fill-opacity="1"><g transform="translate(235.749205, 235.322127)"><g><path d="M 4.03125 -40.890625 L 28.21875 -40.890625 L 28.21875 -32.890625 L 26.984375 -32.890625 L 24.015625 -39.734375 L 9.75 -39.734375 L 9.75 -21.03125 L 21.375 -21.03125 L 21.5625 -24.71875 L 22.71875 -24.71875 L 22.71875 -16.234375 L 21.5625 -16.234375 L 21.375 -19.859375 L 9.75 -19.859375 L 9.75 -1.171875 L 24.015625 -1.171875 L 26.984375 -8 L 28.21875 -8 L 28.21875 0 L 1.046875 0 L 1.046875 -1.171875 L 4.03125 -1.40625 L 4.03125 -39.5 L 1.046875 -39.734375 L 1.046875 -40.890625 Z M 4.03125 -40.890625 "/></g></g></g><g fill="rgb(200, 200, 200)" fill-opacity="1"><g transform="translate(267.116176, 235.322127)"><g><path d="M 26.984375 -8.359375 L 28.21875 -8.359375 L 28.21875 0 L 1.046875 0 L 1.046875 -1.171875 L 4.03125 -1.40625 L 4.03125 -39.5 L 1.046875 -39.734375 L 1.046875 -40.890625 L 12.796875 -40.890625 L 12.796875 -39.734375 L 9.75 -39.5 L 9.75 -1.171875 L 23.953125 -1.171875 Z M 26.984375 -8.359375 "/></g></g></g><g fill="rgb(200, 200, 200)" fill-opacity="1"><g transform="translate(297.081275, 235.322127)"><g><path d="M 1.046875 -39.734375 L 1.046875 -40.890625 L 18.109375 -40.890625 C 22.003906 -40.890625 25.117188 -39.882812 27.453125 -37.875 C 29.796875 -35.875 30.96875 -32.675781 30.96875 -28.28125 C 30.96875 -25.082031 30.332031 -22.519531 29.0625 -20.59375 C 27.800781 -18.664062 26.039062 -17.3125 23.78125 -16.53125 L 31.078125 -1.40625 L 34.171875 -1.171875 L 34.171875 0 L 22.03125 0 L 22.03125 -1.171875 L 24.953125 -1.40625 L 18.046875 -15.65625 L 9.75 -15.65625 L 9.75 -1.453125 L 12.796875 -1.171875 L 12.796875 0 L 1.046875 0 L 1.046875 -1.171875 L 4.09375 -1.453125 L 4.09375 -39.5 Z M 9.75 -39.734375 L 9.75 -16.828125 L 15.3125 -16.828125 C 17.257812 -16.828125 18.972656 -17.1875 20.453125 -17.90625 C 21.929688 -18.625 23.085938 -19.820312 23.921875 -21.5 C 24.765625 -23.175781 25.1875 -25.4375 25.1875 -28.28125 C 25.1875 -31.15625 24.773438 -33.421875 23.953125 -35.078125 C 23.128906 -36.734375 21.976562 -37.921875 20.5 -38.640625 C 19.019531 -39.367188 17.289062 -39.734375 15.3125 -39.734375 Z M 9.75 -39.734375 "/></g></g></g><g fill="rgb(200, 200, 200)" fill-opacity="1"><g transform="translate(333.004321, 235.322127)"><g><path d="M 10.21875 -39.5 L 20.328125 -13.84375 L 30.609375 -39.671875 L 27.640625 -39.734375 L 27.640625 -40.890625 L 34.875 -40.890625 L 34.875 -39.734375 L 31.890625 -39.671875 L 20.796875 -11.6875 L 20.796875 -1.453125 L 23.84375 -1.171875 L 23.84375 0 L 12.09375 0 L 12.09375 -1.171875 L 15.125 -1.453125 L 15.125 -11.6875 L 4.203125 -39.5 L 1.046875 -39.734375 L 1.046875 -40.890625 L 13.140625 -40.890625 L 13.140625 -39.734375 Z M 10.21875 -39.5 "/></g></g></g></svg>